<svg xmlns="http://www.w3.org/2000/svg" fill="#E535AB" viewBox="0 0 16 16" width="1em" height="1em"><path d="M14.147 9.9V6.1A1.43 1.43 0 0 0 15.05 4a1.43 1.43 0 0 0-2.273-.266l-3.29-1.9a1.425 1.425 0 1 0-2.734-.002l-3.291 1.9A1.427 1.427 0 1 0 2.094 6.1v3.802a1.427 1.427 0 1 0 1.369 2.37l3.29 1.899a1.424 1.424 0 0 0 .73 1.679 1.427 1.427 0 0 0 1.991-1.725l3.271-1.889c.264.297.649.483 1.076.479a1.428 1.428 0 0 0 .326-2.814zm-10.33 1.05a1.43 1.43 0 0 0-.401-.693l4.307-7.461c.267.078.542.074.796 0l4.307 7.46a1.42 1.42 0 0 0-.403.694zm8.76-5.524c.201.35.528.58.891.67v3.807l-.054.015-4.308-7.46.038-.039 3.299 1.905c-.102.358-.065.754.135 1.102zM7.136 2.458 2.83 9.918l-.057-.016V6.098a1.43 1.43 0 0 0 1.026-1.777l3.296-1.903zm2.04 11.156a1.425 1.425 0 0 0-2.082-.03l-3.292-1.9q.008-.027.015-.056h8.609q.01.048.026.094z"></path></svg>