<svg xmlns="http://www.w3.org/2000/svg" width="1em" height="1em" fill="none" viewBox="0 0 60 60"><g clip-path="url(#unjs_svg__a)"><mask id="unjs_svg__b" width="60" height="60" x="0" y="0" maskUnits="userSpaceOnUse" style="mask-type: luminance;"><path fill="#fff" d="M60 0H0v60h60z"></path></mask><g mask="url(#unjs_svg__b)"><path fill="#ECDC5A" d="M59.84 60.042H.045q-.003-.008-.004-.017V.046h59.997v59.997zm-10.317-20.79c-.096-.11-.187-.224-.288-.327-1.127-1.145-2.545-1.384-4.056-1.248-1.31.118-2.432.695-3.402 1.575-.052.047-.11.09-.185.151 0-.123.005-.212 0-.3-.029-.436-.233-.766-.62-.964a1.08 1.08 0 0 0-1.126.052c-.398.255-.534.646-.533 1.105q.002 5.161.001 10.324c0 .214-.004.43.001.644.013.552.306.99.751 1.13.78.245 1.525-.296 1.526-1.119q.004-3.54 0-7.083c0-.665.168-1.275.592-1.794.988-1.21 2.268-1.72 3.816-1.544.754.086 1.363.436 1.78 1.082.393.606.527 1.291.533 1.996.014 1.945.009 3.891.01 5.837.002.533-.007 1.066.003 1.599.016.834.912 1.35 1.646.953.467-.251.633-.663.632-1.172-.003-2.209.004-4.417-.005-6.626a14 14 0 0 0-.08-1.573c-.113-.965-.381-1.882-.996-2.698M35.16 38.019c-.137.01-.28-.002-.41.033-.544.144-.843.576-.844 1.204-.001 2.25.004 4.5-.004 6.751-.001.372-.02.75-.087 1.115-.173.964-.69 1.686-1.617 2.052-.904.357-1.834.369-2.77.115-.71-.193-1.254-.6-1.61-1.247a3.2 3.2 0 0 1-.387-1.492c-.019-1.06-.012-2.12-.014-3.178-.001-1.371.002-2.743-.001-4.114-.002-.675-.45-1.205-1.037-1.24-.727-.042-1.239.453-1.24 1.21-.002 2.313-.005 4.626.002 6.939.003.827.091 1.642.406 2.42.597 1.477 1.712 2.368 3.207 2.802.94.273 1.91.29 2.881.176.75-.089 1.468-.293 2.122-.673 1.543-.897 2.328-2.292 2.378-4.033.073-2.553.043-5.11.046-7.664 0-.641-.377-1.066-1.021-1.176"></path><path fill="#111827" d="M49.53 39.264c.608.804.876 1.721.989 2.686.06.52.078 1.048.08 1.573.009 2.209.002 4.417.005 6.626 0 .509-.165.92-.632 1.172a1.114 1.114 0 0 1-1.646-.953c-.01-.533-.002-1.066-.002-1.6-.002-1.945.004-3.89-.011-5.836-.006-.705-.14-1.39-.532-1.996-.418-.646-1.027-.996-1.781-1.082-1.548-.176-2.828.334-3.816 1.544-.424.52-.593 1.129-.592 1.794q.004 3.541 0 7.083c-.001.823-.746 1.364-1.526 1.119-.445-.14-.738-.578-.751-1.13-.005-.215 0-.43 0-.644q0-5.163-.002-10.324c0-.46.135-.85.533-1.105a1.08 1.08 0 0 1 1.125-.052c.388.198.592.528.62.963.006.089.001.178.001.301.075-.061.133-.104.185-.151.97-.88 2.092-1.457 3.402-1.575 1.51-.136 2.93.102 4.056 1.248.101.103.192.218.296.34M35.178 38.02c.626.108 1.003.534 1.003 1.175-.003 2.555.027 5.111-.046 7.664-.05 1.741-.835 3.136-2.378 4.033-.654.38-1.371.584-2.122.673-.97.114-1.94.097-2.881-.176-1.495-.434-2.61-1.325-3.207-2.801-.315-.779-.404-1.594-.406-2.421-.007-2.313-.004-4.626-.002-6.938.001-.758.514-1.253 1.24-1.21.587.034 1.035.564 1.037 1.24.003 1.37 0 2.742.001 4.112.002 1.06-.005 2.12.014 3.179.01.523.133 1.028.388 1.492.355.647.9 1.054 1.61 1.247.935.254 1.865.242 2.769-.115.927-.366 1.444-1.088 1.617-2.052.066-.365.086-.743.087-1.115.008-2.25.003-4.5.004-6.751 0-.628.3-1.06.844-1.204.13-.035.273-.023.428-.032"></path></g></g><defs><clipPath id="unjs_svg__a"><path fill="#fff" d="M0 0h60v60H0z"></path></clipPath></defs></svg>