<svg xmlns="http://www.w3.org/2000/svg" fill="currentColor" viewBox="0 0 400 400" width="1em" height="1em"><path fill-rule="evenodd" d="M368.45 134.47c-.24.9-.32 1.96-.34 3.17-5.32-4.22-13.79-7.67-23-8.97-9.71-1.37-20.34-.38-29.06 4.7-8.65 5.03-17.28 12.04-23.23 23-5.94 10.95-9.18 25.8-7.12 46.48 3.02 30.4 25.18 50.3 44.23 53.15 7.24.95 13.4.95 19.42-.43 5.77-1.32 11.38-3.92 17.65-8.13v40.1c0 2 0 3.67.24 5.03.25 1.39.76 2.52 1.82 3.36 1.05.82 2.56 1.33 4.7 1.64s4.99.43 8.74.43c3.4 0 6.08-.12 8.18-.52s3.66-1.1 4.78-2.26 1.75-2.74 2.1-4.8c.35-2.07.44-4.67.44-7.92v-142c0-2.48-.12-4.4-.52-5.87a5.1 5.1 0 0 0-2.31-3.27c-1.16-.7-2.72-1.02-4.76-1.19-2.04-.16-4.64-.17-7.91-.17-3.28 0-5.81.1-7.76.34-1.94.25-3.36.66-4.38 1.33a4.5 4.5 0 0 0-1.91 2.8M341.7 155.6c-12.07 0-19.46 6.44-23.45 14.99-3.98 8.51-4.6 19.12-3.24 27.59 1.2 7.49 3.6 14.98 7.97 20.61 4.39 5.66 10.76 9.41 19.82 9.41 6.68 0 12.78-1.62 17.19-7.03 4.38-5.39 7.01-14.43 7.01-29.07 0-13.57-1.92-22.7-6.08-28.46-4.2-5.79-10.58-8.04-19.22-8.04M221 99.5a19.5 19.5 0 1 1 39 0 19.5 19.5 0 0 1-39 0m33.49 31.75c-1.76-1.83-4.4-2.75-7.99-2.75h-49.04c-3.7 0-6.52 0-8.65.25-2.14.26-3.7.78-4.76 1.9-1.06 1.13-1.55 2.77-1.8 5.05a98 98 0 0 0-.25 9.3v.02c0 3.2 0 5.64.11 7.48.11 1.83.33 3.15.82 4.07a3.28 3.28 0 0 0 2.42 1.7c1.05.23 2.42.23 4.15.23H225v41.8c0 12.3-.13 24.14-.31 33.31-.1 4.6-.2 8.5-.32 11.47a72 72 0 0 1-.36 5.74c-.94 5.52-3.1 9.8-6.24 12.71-3.13 2.9-7.28 4.47-12.27 4.47-5.78 0-11.7-2.66-14.29-6.38-2.54-3.65-4.2-5.8-5.68-7.04a6.37 6.37 0 0 0-4.63-1.58c-.8 0-1.5.05-2.2.28a6 6 0 0 0-2.1 1.31c-1.45 1.3-3.31 3.67-6.5 7.9l.4.31-.4-.3a90 90 0 0 0-4.83 6.83c-1.13 1.84-1.81 3.36-2.04 4.75-.47 2.85 1 4.97 3.7 7.96 11.48 12.74 28.96 17.45 45.35 15.14 16.4-2.3 31.79-11.63 39.07-27.07a44.5 44.5 0 0 0 3.15-8.2c.78-3 1.32-6.6 1.69-11.85.74-10.47.81-27.57.81-59.66V139c0-3.27-.77-5.92-2.51-7.75m-115.93-23.6c2.58.21 5.55 1.35 8.76 2.9 3.2 1.55 5.75 3 7.31 4.71a6.3 6.3 0 0 1 1.58 2.86c.24 1.05.16 2.19-.23 3.43-.1.34-.48 1.21-1.05 2.52a2687 2687 0 0 1-10.49 22.96 11225 11225 0 0 1-24.02 51.47c-8.72 18.57-17.47 37.09-24.16 51.15-3.35 7.04-6.2 12.96-8.26 17.22a462 462 0 0 1-3.26 6.57c-.2.35-.34.62-.43.75a6.6 6.6 0 0 1-1.94 1.9c-.75.46-1.6.68-2.61.67-1.98-.01-4.63-.9-8.47-2.7-3.76-1.76-6.62-3.41-8.4-5.11a7 7 0 0 1-1.86-2.68 4.4 4.4 0 0 1 0-2.93c.08-.25.42-1.06.97-2.3a3920 3920 0 0 1 10.22-22.56 13118 13118 0 0 1 47.64-102.9c3.35-7.11 6.21-13.13 8.33-17.5 1.06-2.19 1.93-3.96 2.59-5.25a26 26 0 0 1 1.32-2.42c1.62-2.22 3.85-2.97 6.47-2.76ZM2 236.5a19.5 19.5 0 1 1 39 0 19.5 19.5 0 0 1-39 0"></path></svg>