<svg xmlns="http://www.w3.org/2000/svg" width="1em" height="1em" viewBox="0 0 40 40"><defs><radialGradient id="nitro_svg__a" cx="10%" cy="50%" r="97.5%" fx="10%" fy="50%"><stop offset="0%" stop-color="#31B2F3"></stop><stop offset="47.396%" stop-color="#F27CEC"></stop><stop offset="100%" stop-color="#FD6641"></stop></radialGradient><circle id="nitro_svg__b" cx="20" cy="20.001" r="20"></circle></defs><g fill="none" fill-rule="evenodd"><path fill="url(#nitro_svg__a)" d="M35.217 7.02C28.047-1.383 15.424-2.384 7.02 4.785S-2.383 24.577 4.785 32.98c7.17 8.403 19.793 9.404 28.196 2.235s9.404-19.792 2.236-28.196m-9.964 10.497c.77 0 1.262.836.876 1.502l-.112.192L18.47 31.63a.77.77 0 0 1-.661.372h-.72a.755.755 0 0 1-.732-.944l2.048-7.919a1 1 0 0 0-.968-1.25h-3.146a1 1 0 0 1-.968-1.25l3.09-11.955a.92.92 0 0 1 .895-.681q.076 0 .135.003h3.168a1 1 0 0 1 .991 1.134l-.02.143-1.207 7.067a1 1 0 0 0 .985 1.168z"></path></g></svg>